<?xml version="1.0" standalone="no"?>
<!DOCTYPE svg PUBLIC "-//W3C//DTD SVG 20010904//EN"
 "http://www.w3.org/TR/2001/REC-SVG-20010904/DTD/svg10.dtd">
<svg version="1.0" xmlns="http://www.w3.org/2000/svg"
 width="1177.000000pt" height="910.000000pt" viewBox="0 0 1177.000000 910.000000"
 preserveAspectRatio="xMidYMid meet">
<metadata>
Created by potrace 1.16, written by Peter Selinger 2001-2019
</metadata>
<g transform="translate(0.000000,910.000000) scale(0.100000,-0.100000)"
fill="#000000" stroke="none">
<path d="M0 4550 l0 -4550 5885 0 5885 0 0 4550 0 4550 -5885 0 -5885 0 0
-4550z m4302 308 c14 -11 17 -64 22 -403 7 -476 19 -559 90 -640 20 -22 36
-43 36 -46 0 -16 -44 -21 -177 -20 -186 2 -199 7 -147 62 25 26 27 36 36 171
5 79 8 269 6 423 -5 309 -10 341 -68 384 -17 12 -30 26 -30 31 0 17 43 33 105
40 94 11 110 11 127 -2z m2665 -23 c65 -8 134 -16 153 -17 26 -2 38 -9 47 -29
26 -55 29 -209 3 -209 -5 0 -26 19 -47 42 -109 122 -146 143 -253 143 -84 0
-123 -17 -161 -68 -27 -37 -36 -106 -19 -147 21 -50 75 -88 244 -169 98 -47
179 -93 205 -116 86 -78 119 -197 87 -310 -14 -46 -29 -70 -74 -115 -100 -100
-221 -125 -422 -86 -47 8 -102 15 -122 14 -63 -2 -85 34 -89 147 -5 139 5 153
62 88 49 -57 136 -122 207 -156 55 -26 71 -29 123 -24 104 9 169 71 169 161 0
107 -42 149 -251 250 -178 87 -227 124 -265 201 -24 50 -26 64 -22 134 9 160
102 247 300 280 3 1 59 -6 125 -14z m-5432 -5 c64 0 71 -9 51 -66 -22 -66 -21
-86 19 -221 39 -136 181 -533 194 -546 5 -5 14 -6 19 -3 13 8 54 114 128 326
106 302 123 394 83 459 -27 45 -17 51 97 51 108 0 154 -8 161 -27 3 -8 -18
-38 -49 -71 -30 -31 -60 -67 -66 -78 -6 -12 -52 -131 -102 -265 -149 -399
-213 -562 -235 -596 -41 -65 -89 -67 -130 -5 -13 20 -82 195 -153 387 -202
545 -185 508 -248 562 -63 55 -69 80 -21 88 50 8 138 13 177 9 19 -2 53 -4 75
-4z m6213 -220 c27 -79 52 -102 124 -119 69 -15 88 -33 63 -61 -9 -10 -31 -22
-49 -26 -62 -13 -103 -35 -116 -62 -19 -37 -26 -323 -10 -381 6 -24 24 -57 40
-73 26 -25 35 -28 94 -28 59 0 66 -2 66 -19 0 -38 -118 -101 -188 -101 -41 1
-106 34 -129 66 -34 48 -43 101 -49 299 -7 238 -12 257 -70 298 -24 17 -44 34
-44 38 0 4 19 20 42 36 32 21 51 46 76 98 44 91 59 107 96 103 28 -3 33 -9 54
-68z m982 -131 c71 -34 123 -87 163 -168 28 -58 32 -77 35 -167 3 -92 1 -108
-24 -170 -35 -88 -74 -138 -147 -185 -136 -88 -336 -70 -445 40 -148 150 -146
426 5 576 79 79 150 106 273 102 67 -2 96 -8 140 -28z m-5054 8 c45 -7 88 -18
96 -25 26 -21 33 -162 8 -162 -4 0 -33 23 -66 51 -71 63 -107 79 -176 79 -56
0 -86 -16 -107 -57 -39 -76 6 -115 250 -220 54 -24 114 -75 135 -114 20 -40
18 -132 -5 -177 -25 -49 -56 -76 -114 -102 -68 -30 -130 -35 -228 -16 -47 9
-100 16 -117 16 -22 0 -36 7 -48 25 -22 33 -31 140 -14 160 12 14 17 13 44
-13 42 -40 132 -101 172 -118 45 -19 81 -17 130 5 32 15 45 28 54 55 25 76 -6
110 -177 192 -135 65 -170 91 -200 147 -38 72 -11 186 57 235 70 52 151 62
306 39z m-841 -8 c119 -32 218 -184 180 -275 -18 -43 -50 -51 -244 -64 -83 -6
-162 -16 -176 -22 -60 -27 -55 -135 11 -208 74 -82 160 -93 308 -39 58 21 91
28 98 21 17 -17 -49 -79 -120 -114 -58 -29 -79 -33 -160 -36 -88 -4 -97 -2
-157 27 -70 35 -124 89 -158 161 -19 39 -22 62 -22 165 0 116 1 123 33 187 35
72 84 126 148 164 68 40 180 54 259 33z m2319 -6 c91 -33 166 -135 166 -227 0
-81 -23 -91 -242 -106 -169 -12 -196 -19 -219 -61 -19 -37 -5 -104 32 -153 74
-97 164 -113 319 -57 99 36 100 37 100 12 0 -26 -62 -78 -130 -110 -78 -36
-202 -41 -281 -12 -75 28 -138 85 -174 157 -28 56 -30 66 -30 179 0 113 2 124
31 185 79 167 265 251 428 193z m656 2 c7 -5 9 -29 5 -73 -7 -77 16 -172 81
-325 54 -130 62 -128 122 18 66 163 88 292 58 357 -6 14 -2 20 20 29 33 12
143 6 174 -11 17 -9 19 -14 9 -33 -7 -12 -25 -37 -40 -55 -41 -47 -66 -100
-158 -337 -178 -457 -220 -543 -288 -589 -60 -41 -156 -31 -183 19 -18 34 -7
53 37 60 107 18 161 64 189 162 22 74 12 123 -55 294 -72 185 -132 307 -190
389 -57 82 -56 89 11 101 49 9 191 5 208 -6z m4608 -9 c61 -31 110 -85 132
-142 34 -93 22 -142 -43 -163 -17 -6 -104 -15 -192 -21 -171 -11 -200 -20
-211 -66 -12 -48 2 -114 33 -152 71 -88 167 -106 303 -57 108 39 120 41 120
20 0 -26 -58 -76 -126 -109 -76 -38 -204 -48 -282 -22 -148 49 -232 194 -219
375 12 174 110 304 260 346 66 19 181 14 225 -9z m-996 -35 c32 -64 38 -65 96
-22 69 52 111 66 157 51 19 -6 40 -20 45 -30 16 -30 12 -76 -10 -95 -20 -18
-33 -17 -115 4 -50 13 -90 -5 -123 -53 -36 -52 -43 -92 -44 -231 -1 -146 7
-177 67 -235 19 -19 35 -39 35 -46 0 -17 -48 -23 -203 -25 -166 -3 -179 4
-119 58 22 21 46 51 51 66 12 30 15 357 5 420 -4 23 -22 54 -47 83 -34 39 -38
47 -26 59 22 22 79 34 149 32 63 -2 65 -3 82 -36z"/>
<path d="M8495 4431 c-63 -26 -111 -110 -126 -221 -35 -255 92 -454 255 -400
48 16 102 81 123 149 26 84 23 247 -7 324 -26 69 -72 125 -117 143 -36 15 -97
17 -128 5z"/>
<path d="M2655 4404 c-66 -34 -105 -91 -105 -153 0 -46 24 -53 172 -49 116 3
131 5 144 23 33 44 -13 146 -80 176 -50 23 -92 24 -131 3z"/>
<path d="M4951 4402 c-49 -24 -92 -82 -98 -131 -9 -66 1 -71 143 -71 172 0
191 10 173 90 -24 105 -128 159 -218 112z"/>
<path d="M10187 4399 c-68 -36 -118 -146 -82 -182 13 -14 38 -17 138 -17 154
0 172 8 171 72 -1 112 -124 181 -227 127z"/>
</g>
</svg>
